<svg xmlns="http://www.w3.org/2000/svg" viewBox="0 0 40 58" preserveAspectRatio="none">
<rect width="40" height="58" fill="#5b2a1d"/>
<clipPath id="c"><rect x="5.2" y="5.2" width="29.6" height="47.6" rx="1"/></clipPath>
<g clip-path="url(#c)"><rect x="5" y="5" width="30" height="48" fill="#4a2015"/><path d="M-60 -2L2 60M2 -2L-60 60M-56 -2L6 60M6 -2L-56 60M-52 -2L10 60M10 -2L-52 60M-48 -2L14 60M14 -2L-48 60M-44 -2L18 60M18 -2L-44 60M-40 -2L22 60M22 -2L-40 60M-36 -2L26 60M26 -2L-36 60M-32 -2L30 60M30 -2L-32 60M-28 -2L34 60M34 -2L-28 60M-24 -2L38 60M38 -2L-24 60M-20 -2L42 60M42 -2L-20 60M-16 -2L46 60M46 -2L-16 60M-12 -2L50 60M50 -2L-12 60M-8 -2L54 60M54 -2L-8 60M-4 -2L58 60M58 -2L-4 60M0 -2L62 60M62 -2L0 60M4 -2L66 60M66 -2L4 60M8 -2L70 60M70 -2L8 60M12 -2L74 60M74 -2L12 60M16 -2L78 60M78 -2L16 60M20 -2L82 60M82 -2L20 60M24 -2L86 60M86 -2L24 60M28 -2L90 60M90 -2L28 60M32 -2L94 60M94 -2L32 60M36 -2L98 60M98 -2L36 60M40 -2L102 60M102 -2L40 60M44 -2L106 60M106 -2L44 60M48 -2L110 60M110 -2L48 60M52 -2L114 60M114 -2L52 60M56 -2L118 60M118 -2L56 60M60 -2L122 60M122 -2L60 60M64 -2L126 60M126 -2L64 60M68 -2L130 60M130 -2L68 60M72 -2L134 60M134 -2L72 60M76 -2L138 60M138 -2L76 60M80 -2L142 60M142 -2L80 60M84 -2L146 60M146 -2L84 60M88 -2L150 60M150 -2L88 60M92 -2L154 60M154 -2L92 60M96 -2L158 60M158 -2L96 60" stroke="#c9a15a" stroke-opacity=".35" stroke-width=".4" fill="none"/></g>
<rect x="1.4" y="1.4" width="37.2" height="55.2" rx="2.2" fill="none" stroke="#f1e2bb" stroke-width=".8"/>
<circle cx="6" cy="3.2" r=".5" fill="#f1e2bb"/><circle cx="6" cy="54.8" r=".5" fill="#f1e2bb"/><circle cx="9" cy="3.2" r=".5" fill="#f1e2bb"/><circle cx="9" cy="54.8" r=".5" fill="#f1e2bb"/><circle cx="12" cy="3.2" r=".5" fill="#f1e2bb"/><circle cx="12" cy="54.8" r=".5" fill="#f1e2bb"/><circle cx="15" cy="3.2" r=".5" fill="#f1e2bb"/><circle cx="15" cy="54.8" r=".5" fill="#f1e2bb"/><circle cx="18" cy="3.2" r=".5" fill="#f1e2bb"/><circle cx="18" cy="54.8" r=".5" fill="#f1e2bb"/><circle cx="21" cy="3.2" r=".5" fill="#f1e2bb"/><circle cx="21" cy="54.8" r=".5" fill="#f1e2bb"/><circle cx="24" cy="3.2" r=".5" fill="#f1e2bb"/><circle cx="24" cy="54.8" r=".5" fill="#f1e2bb"/><circle cx="27" cy="3.2" r=".5" fill="#f1e2bb"/><circle cx="27" cy="54.8" r=".5" fill="#f1e2bb"/><circle cx="30" cy="3.2" r=".5" fill="#f1e2bb"/><circle cx="30" cy="54.8" r=".5" fill="#f1e2bb"/><circle cx="33" cy="3.2" r=".5" fill="#f1e2bb"/><circle cx="33" cy="54.8" r=".5" fill="#f1e2bb"/><circle cx="3.2" cy="8" r=".5" fill="#f1e2bb"/><circle cx="36.8" cy="8" r=".5" fill="#f1e2bb"/><circle cx="3.2" cy="11" r=".5" fill="#f1e2bb"/><circle cx="36.8" cy="11" r=".5" fill="#f1e2bb"/><circle cx="3.2" cy="14" r=".5" fill="#f1e2bb"/><circle cx="36.8" cy="14" r=".5" fill="#f1e2bb"/><circle cx="3.2" cy="17" r=".5" fill="#f1e2bb"/><circle cx="36.8" cy="17" r=".5" fill="#f1e2bb"/><circle cx="3.2" cy="20" r=".5" fill="#f1e2bb"/><circle cx="36.8" cy="20" r=".5" fill="#f1e2bb"/><circle cx="3.2" cy="23" r=".5" fill="#f1e2bb"/><circle cx="36.8" cy="23" r=".5" fill="#f1e2bb"/><circle cx="3.2" cy="26" r=".5" fill="#f1e2bb"/><circle cx="36.8" cy="26" r=".5" fill="#f1e2bb"/><circle cx="3.2" cy="29" r=".5" fill="#f1e2bb"/><circle cx="36.8" cy="29" r=".5" fill="#f1e2bb"/><circle cx="3.2" cy="32" r=".5" fill="#f1e2bb"/><circle cx="36.8" cy="32" r=".5" fill="#f1e2bb"/><circle cx="3.2" cy="35" r=".5" fill="#f1e2bb"/><circle cx="36.8" cy="35" r=".5" fill="#f1e2bb"/><circle cx="3.2" cy="38" r=".5" fill="#f1e2bb"/><circle cx="36.8" cy="38" r=".5" fill="#f1e2bb"/><circle cx="3.2" cy="41" r=".5" fill="#f1e2bb"/><circle cx="36.8" cy="41" r=".5" fill="#f1e2bb"/><circle cx="3.2" cy="44" r=".5" fill="#f1e2bb"/><circle cx="36.8" cy="44" r=".5" fill="#f1e2bb"/><circle cx="3.2" cy="47" r=".5" fill="#f1e2bb"/><circle cx="36.8" cy="47" r=".5" fill="#f1e2bb"/><circle cx="3.2" cy="50" r=".5" fill="#f1e2bb"/><circle cx="36.8" cy="50" r=".5" fill="#f1e2bb"/>
<rect x="5.2" y="5.2" width="29.6" height="47.6" rx="1" fill="none" stroke="#f1e2bb" stroke-width=".5"/>
<circle cx="20" cy="29" r="11.6" fill="#4a2015" stroke="#c9a15a" stroke-width=".6"/>
<ellipse cx="20" cy="29" rx="2.6" ry="7.4" transform="rotate(0 20 29) translate(0 -5.2)" fill="#f1e2bb" stroke="#5b2a1d" stroke-width=".35"/><ellipse cx="20" cy="29" rx="2.6" ry="7.4" transform="rotate(45 20 29) translate(0 -5.2)" fill="#f1e2bb" stroke="#5b2a1d" stroke-width=".35"/><ellipse cx="20" cy="29" rx="2.6" ry="7.4" transform="rotate(90 20 29) translate(0 -5.2)" fill="#f1e2bb" stroke="#5b2a1d" stroke-width=".35"/><ellipse cx="20" cy="29" rx="2.6" ry="7.4" transform="rotate(135 20 29) translate(0 -5.2)" fill="#f1e2bb" stroke="#5b2a1d" stroke-width=".35"/><ellipse cx="20" cy="29" rx="2.6" ry="7.4" transform="rotate(180 20 29) translate(0 -5.2)" fill="#f1e2bb" stroke="#5b2a1d" stroke-width=".35"/><ellipse cx="20" cy="29" rx="2.6" ry="7.4" transform="rotate(225 20 29) translate(0 -5.2)" fill="#f1e2bb" stroke="#5b2a1d" stroke-width=".35"/><ellipse cx="20" cy="29" rx="2.6" ry="7.4" transform="rotate(270 20 29) translate(0 -5.2)" fill="#f1e2bb" stroke="#5b2a1d" stroke-width=".35"/><ellipse cx="20" cy="29" rx="2.6" ry="7.4" transform="rotate(315 20 29) translate(0 -5.2)" fill="#f1e2bb" stroke="#5b2a1d" stroke-width=".35"/>
<circle cx="20" cy="29" r="3.1" fill="#c9a15a" stroke="#5b2a1d" stroke-width=".4"/>
</svg>